<svg xmlns="http://www.w3.org/2000/svg" width="24" height="24" viewBox="0 0 24 24"><path d="m 17 0 a 1 1 0 0 0 -1 1 c 0 2.949 -2.583 4 -5 4 h -7 a 4 4 0 0 0 -4 4 v 2 a 3.979 3.979 0 0 0 1.514 3.109 l 3.572 7.972 a 3.233 3.233 0 0 0 2.953 1.919 2.982 2.982 0 0 0 2.72 -4.2 l -2.2 -4.8 h 2.441 c 2.417 0 5 1.051 5 4 a 1 1 0 0 0 2 0 v -18 a 1 1 0 0 0 -1 -1 z m -8.063 20.619 a 0.983 0.983 0 0 1 -0.898 1.381 1.232 1.232 0 0 1 -1.126 -0.734 l -2.808 -6.266 h 2.254 z m 7.063 -6.019 a 7.723 7.723 0 0 0 -5 -1.6 h -7 a 2 2 0 0 1 -2 -2 v -2 a 2 2 0 0 1 2 -2 h 7 a 7.723 7.723 0 0 0 5 -1.595 z m 7.9 0.852 a 1 1 0 0 1 -1.342 0.448 l -2 -1 a 1 1 0 0 1 0.894 -1.79 l 2 1 a 1 1 0 0 1 0.448 1.337 z m -3.79 -9 a 1 1 0 0 1 0.448 -1.342 l 2 -1 a 1 1 0 1 1 0.894 1.79 l -2 1 a 1 1 0 0 1 -1.342 -0.448 z m -0.11 3.548 a 1 1 0 0 1 1 -1 h 2 a 1 1 0 0 1 0 2 h -2 a 1 1 0 0 1 -1 -1 z" fill="#FFFFFF"/></svg>
