<svg xmlns="http://www.w3.org/2000/svg" width="32" height="32" viewBox="0 0 32 32">
  <path d="M5 24H3.5a1 1 0 0 1-1-1v-3a2 2 0 0 1 1.3-1.9L8 16.5l3-5h8l5 5.5 4.2 1.6a2 2 0 0 1 1.3 1.9V23a1 1 0 0 1-1 1H27M10 24h12" fill="#000000" fill-opacity="0.12" stroke="#000000" stroke-width="1.65" stroke-linecap="round" stroke-linejoin="round"/>
  <path d="m9 16.5 2.6-4h7l3.6 4Z" fill="#000000" fill-opacity="0.24"/>
  <path d="M8 16.5h14M14 12v4.5M14 18.5v3M15.5 19h1.5M3 20.5h2M27 20.5h2" fill="none" stroke="#000000" stroke-width="1.2" stroke-linecap="round" stroke-linejoin="round"/>
  <path d="M5 24a2.5 2.5 0 1 0 5 0a2.5 2.5 0 1 0 -5 0Z" fill="#000000" fill-opacity="0.24" stroke="#000000" stroke-width="1.65" stroke-linecap="round" stroke-linejoin="round"/>
  <path d="M22 24a2.5 2.5 0 1 0 5 0a2.5 2.5 0 1 0 -5 0Z" fill="#000000" fill-opacity="0.24" stroke="#000000" stroke-width="1.65" stroke-linecap="round" stroke-linejoin="round"/>
  <path d="m18.75 13.5 1.5 1.75" fill="none" stroke="#000000" stroke-width="2" stroke-linecap="round" stroke-linejoin="round"/>
  <path d="M24 5.5a7.5 7.5 0 0 1 5 7M23.5 9a4 4 0 0 1 2.2 3.5" fill="none" stroke="#000000" stroke-width="1.65" stroke-linecap="round" stroke-linejoin="round"/>
</svg>
